<mxfile host="app.diagrams.net" modified="2023-04-15T05:38:20.775Z" agent="Mozilla/5.0 (Macintosh; Intel Mac OS X 10_15_7) AppleWebKit/537.36 (KHTML, like Gecko) Chrome/111.0.0.0 Safari/537.36" version="21.1.5" etag="0bdz06QR7bbF83JHcREi" type="github">
  <diagram name="ページ1" id="A0RFGYicWgXDQkOwgbv-">
    <mxGraphModel>
      <root>
        <mxCell id="0" />
        <mxCell id="1" parent="0" />
      </root>
    </mxGraphModel>
  </diagram>
</mxfile>
